HIERARCHY
ROOT Hips
{
 OFFSET 0.000000 0.000000 0.000000
 CHANNELS 6 Xposition Yposition Zposition Yrotation Xrotation Zrotation
 JOINT Chest
 {
  OFFSET 0.000000 9.581000 -0.001100
  CHANNELS 3 Yrotation Xrotation Zrotation
  JOINT Chest2
  {
   OFFSET 0.000000 9.561100 0.002200
   CHANNELS 3 Yrotation Xrotation Zrotation
   JOINT Chest3
   {
    OFFSET 0.000000 9.521100 0.000000
    CHANNELS 3 Yrotation Xrotation Zrotation
    JOINT Chest4
    {
     OFFSET 0.000000 9.511400 0.000000
     CHANNELS 3 Yrotation Xrotation Zrotation
     JOINT Neck
     {
      OFFSET 0.000000 14.375100 0.000000
      CHANNELS 3 Yrotation Xrotation Zrotation
      JOINT Head
      {
       OFFSET 0.000000 8.901200 0.004600
       CHANNELS 3 Yrotation Xrotation Zrotation
       End Site
       {
        OFFSET 0.000000 16.962200 0.002400
       }
      }
     }
     JOINT RightCollar
     {
      OFFSET -2.920100 9.518800 0.000000
      CHANNELS 3 Yrotation Xrotation Zrotation
      JOINT RightShoulder
      {
       OFFSET -13.664500 0.000000 0.000000
       CHANNELS 3 Yrotation Xrotation Zrotation
       JOINT RightElbow
       {
        OFFSET 0.000000 -29.999200 0.000000
        CHANNELS 3 Yrotation Xrotation Zrotation
        JOINT RightWrist
        {
         OFFSET 0.000000 -24.253600 0.000000
         CHANNELS 3 Yrotation Xrotation Zrotation
         End Site
         {
          OFFSET 0.000000 -17.918900 0.000000
         }
        }
       }
      }
     }
     JOINT LeftCollar
     {
      OFFSET 2.920100 9.518800 0.000000
      CHANNELS 3 Yrotation Xrotation Zrotation
      JOINT LeftShoulder
      {
       OFFSET 13.664500 0.000000 0.000000
       CHANNELS 3 Yrotation Xrotation Zrotation
       JOINT LeftElbow
       {
        OFFSET 0.000000 -29.999200 0.000000
        CHANNELS 3 Yrotation Xrotation Zrotation
        JOINT LeftWrist
        {
         OFFSET 0.000000 -24.253600 0.000000
         CHANNELS 3 Yrotation Xrotation Zrotation
         End Site
         {
          OFFSET 0.000000 -17.918900 0.000000
         }
        }
       }
      }
     }
    }
   }
  }
 }
 JOINT RightHip
 {
  OFFSET -7.797300 0.005300 0.000500
  CHANNELS 3 Yrotation Xrotation Zrotation
  JOINT RightKnee
  {
   OFFSET 0.000000 -40.663400 -0.000500
   CHANNELS 3 Yrotation Xrotation Zrotation
   JOINT RightAnkle
   {
    OFFSET 0.000000 -39.523700 -0.000900
    CHANNELS 3 Yrotation Xrotation Zrotation
    JOINT RightToe
    {
     OFFSET 0.000000 -6.418000 14.485300
     CHANNELS 3 Yrotation Xrotation Zrotation
     End Site
     {
      OFFSET 0.000000 -1.465200 6.326400
     }
    }
   }
  }
 }
 JOINT LeftHip
 {
  OFFSET 7.797300 0.005300 0.000500
  CHANNELS 3 Yrotation Xrotation Zrotation
  JOINT LeftKnee
  {
   OFFSET 0.000000 -40.663400 -0.000500
   CHANNELS 3 Yrotation Xrotation Zrotation
   JOINT LeftAnkle
   {
    OFFSET 0.000000 -39.523700 -0.000900
    CHANNELS 3 Yrotation Xrotation Zrotation
    JOINT LeftToe
    {
     OFFSET 0.000000 -6.418000 14.485300
     CHANNELS 3 Yrotation Xrotation Zrotation
     End Site
     {
      OFFSET 0.000000 -1.465200 6.326400
     }
    }
   }
  }
 }
}
MOTION
Frames: 9
Frame Time: 0.008333
-14.648507 126.910733 23.369806 -169.165567 -49.457298 -3.125951 -2.504243 26.185948 0.266811 -0.424343 4.391471 0.122656 -0.660889 6.956615 0.180710 -2.041889 21.511428 0.302368 2.292669 18.114919 -0.017578 2.425640 -6.627057 -0.540038 1.276153 2.324904 1.897088 4.129469 -9.569930 -10.439807 -83.543701 -60.639849 136.414702 8.674695 14.749990 7.419993 -9.322699 -1.431922 -0.871523 -8.243953 -11.455563 10.831717 67.634913 -53.229559 -115.997632 -0.547288 -13.266062 12.927574 -4.610767 -22.961729 -4.117450 -6.221383 78.344262 -5.351934 11.000559 -13.761280 2.057941 0.000606 -0.000806 0.000268 6.679834 5.784776 2.574828 128.636833 65.338666 148.289092 5.899522 13.410362 2.259829 0.002055 0.002112 0.000910
-14.648423 126.911164 23.368725 -169.174909 -49.452483 -3.121369 -2.510661 26.215241 0.263168 -0.417630 4.378648 0.123162 -0.659235 6.954734 0.181208 -2.042825 21.526940 0.303469 2.259072 18.005045 -0.071039 2.401167 -6.748531 -0.588717 1.292864 2.268156 1.876145 4.280684 -9.508344 -10.466222 -83.221117 -60.637209 136.118258 9.006453 15.319875 7.895128 -9.355796 -1.481471 -0.865602 -8.301295 -11.388422 10.846938 67.506116 -53.271444 -115.905879 -0.682517 -13.043195 12.739490 -4.611582 -22.966523 -4.108511 -6.220722 78.346360 -5.353390 10.989874 -13.762660 2.050761 0.000374 -0.001238 0.000166 6.682916 5.778717 2.577049 128.643157 65.343203 148.292477 5.906933 13.421478 2.247221 -0.000498 0.004503 -0.000221
-14.648190 126.911279 23.367951 -169.182175 -49.445446 -3.118631 -2.510121 26.226602 0.264591 -0.417734 4.382915 0.123473 -0.655223 6.938590 0.180672 -2.045851 21.557644 0.305362 2.225743 17.893919 -0.127212 2.377644 -6.871026 -0.640250 1.339654 2.179182 1.812224 4.377590 -9.423183 -10.437950 -82.959619 -60.660543 135.881123 9.406865 15.922170 8.522789 -9.370172 -1.527923 -0.861239 -8.367992 -11.327716 10.853914 67.356228 -53.319777 -115.811772 -0.814245 -12.785515 12.494383 -4.612517 -22.974339 -4.101361 -6.215182 78.349455 -5.346050 10.974428 -13.762631 2.045335 -0.000437 -0.001824 -0.000194 6.685988 5.772348 2.577983 128.647353 65.347908 148.298063 5.903763 13.415840 2.270631 0.001451 0.002307 0.000643
-14.648311 126.911656 23.367015 -169.185031 -49.440680 -3.117167 -2.511206 26.235360 0.266037 -0.419343 4.392327 0.124476 -0.658180 6.947204 0.177798 -2.040665 21.544759 0.306836 2.190301 17.801933 -0.184038 2.354878 -6.993322 -0.696069 1.360393 2.139659 1.778987 4.489903 -9.372032 -10.437385 -82.752185 -60.717623 135.710260 9.848491 16.523921 9.216080 -9.385901 -1.557113 -0.858697 -8.443740 -11.252237 10.854024 67.225809 -53.389998 -115.734535 -0.934741 -12.503429 12.198542 -4.615789 -22.979846 -4.097696 -6.228081 78.352422 -5.358772 10.970523 -13.763512 2.041487 -0.000924 -0.002609 -0.000409 6.687204 5.768483 2.577173 128.646612 65.351593 148.299525 5.897301 13.407709 2.298711 0.004084 -0.001037 0.001809
-14.648714 126.911932 23.366177 -169.185338 -49.435170 -3.115923 -2.512357 26.234049 0.265920 -0.421583 4.411707 0.126688 -0.658189 6.950525 0.178676 -2.040329 21.534959 0.304830 2.152945 17.711811 -0.244177 2.331775 -7.116818 -0.754876 1.369082 2.112950 1.761817 4.603033 -9.337864 -10.457687 -82.589836 -60.797911 135.604380 10.303952 17.098431 9.893888 -9.440891 -1.623091 -0.817975 -8.478874 -11.131789 10.805186 67.114472 -53.486568 -115.674864 -1.046994 -12.211964 11.884993 -4.619941 -22.987145 -4.097576 -6.245239 78.355971 -5.377599 10.981554 -13.762223 2.040249 -0.000035 -0.002974 -0.000016 6.685532 5.763506 2.574398 128.645590 65.352264 148.297345 5.886677 13.392725 2.342298 0.006898 -0.006040 0.003056
-14.649700 126.911885 23.365624 -169.188266 -49.427155 -3.109337 -2.518071 26.245564 0.262762 -0.418846 4.417866 0.124747 -0.663804 6.990840 0.182121 -2.044892 21.511285 0.303737 2.142011 17.632934 -0.282201 2.294004 -7.277800 -0.843900 1.386750 2.062793 1.740159 4.703796 -9.312767 -10.487880 -82.478008 -60.889305 135.560888 10.739209 17.624972 10.517073 -9.450987 -1.689857 -0.788529 -8.554758 -11.025330 10.765057 67.011873 -53.609981 -115.631220 -1.194707 -11.947324 11.670493 -4.619367 -22.998505 -4.100276 -6.258030 78.361125 -5.391738 10.984079 -13.759646 2.043014 0.000465 -0.002570 0.000206 6.688049 5.753846 2.567646 128.648763 65.358422 148.298570 5.902518 13.413825 2.319878 0.002865 -0.003370 0.001269
-14.649784 126.911999 23.364730 -169.189289 -49.419578 -3.110594 -2.518359 26.275675 0.265476 -0.423209 4.410745 0.124076 -0.659057 6.978386 0.182462 -2.039824 21.532498 0.305426 2.088945 17.505836 -0.364128 2.281363 -7.391038 -0.896253 1.399499 2.010718 1.706148 4.778965 -9.292224 -10.511173 -82.414402 -60.986738 135.576121 11.131343 18.079882 11.074039 -9.466811 -1.752162 -0.753268 -8.641523 -10.914757 10.723121 66.928181 -53.752718 -115.606234 -1.443230 -11.746883 11.683931 -4.620900 -23.006847 -4.097454 -6.264231 78.364334 -5.395564 10.986237 -13.760033 2.041148 0.000761 -0.002470 0.000337 6.689669 5.744304 2.564642 128.644436 65.361724 148.301343 5.905181 13.428364 2.305239 0.004467 -0.006094 0.001979
-14.650135 126.912383 23.363527 -169.195053 -49.413648 -3.107854 -2.515605 26.275961 0.266648 -0.432477 4.436766 0.122947 -0.652146 6.966931 0.183254 -2.045756 21.565663 0.305374 2.043113 17.364855 -0.451879 2.275076 -7.507744 -0.952597 1.406340 1.946579 1.671299 4.861465 -9.277411 -10.552843 -82.398843 -61.086496 135.654266 11.478998 18.460307 11.561751 -9.468151 -1.826191 -0.719917 -8.738012 -10.806966 10.685196 66.888148 -53.899094 -115.601689 -1.774950 -11.615282 11.891300 -4.618467 -23.013739 -4.095060 -6.296246 78.368460 -5.423456 10.987893 -13.762340 2.037954 0.000876 -0.002178 0.000388 6.694519 5.743647 2.557935 128.621931 65.361608 148.281677 5.918540 13.446694 2.264339 -0.000814 0.000383 -0.000361
-14.650163 126.912266 23.362608 -169.197099 -49.402778 -3.110213 -2.525016 26.292960 0.266155 -0.427043 4.424844 0.121994 -0.662692 6.996097 0.183972 -2.054254 21.578029 0.302514 2.022471 17.232539 -0.527452 2.260220 -7.638257 -1.022935 1.436549 1.880143 1.637662 4.929335 -9.258944 -10.611366 -82.427222 -61.183299 135.787958 11.787146 18.788501 11.989377 -9.456975 -1.898510 -0.687907 -8.844249 -10.707133 10.648314 66.895599 -54.040833 -115.618231 -2.092880 -11.544927 12.144887 -4.631466 -23.026354 -4.090530 -6.294695 78.372363 -5.425794 10.998079 -13.763088 2.032015 0.000424 -0.001794 0.000188 6.696473 5.732961 2.559320 128.619062 65.361597 148.281322 5.923984 13.457651 2.233630 -0.002016 0.003120 -0.000893
